<?xml version="1.0" encoding="UTF-8" standalone="no"?>
<!DOCTYPE svg PUBLIC "-//W3C//DTD SVG 1.1//EN" "http://www.w3.org/Graphics/SVG/1.1/DTD/svg11.dtd">
<svg width="100%" height="100%" viewBox="0 0 128 128" version="1.1" xmlns="http://www.w3.org/2000/svg" xmlns:xlink="http://www.w3.org/1999/xlink" xml:space="preserve" xmlns:serif="http://www.serif.com/" style="fill-rule:evenodd;clip-rule:evenodd;stroke-linejoin:round;stroke-miterlimit:2;">
    <g transform="matrix(1,0,0,1,0,-477.044725)">
        <g id="ball" transform="matrix(0.036489,0,0,0.025803,0,477.044725)">
            <rect x="0" y="0" width="3507.874" height="4960.63" style="fill:none;"/>
            <g id="Layer0_2_FILL" transform="matrix(184.664467,0,0,261.14167,-25497.675299,-7905.241939)">
                <g transform="matrix(1,0,0,1,-12.426334,-0.230181)">
                    <path d="M166.35,33.6C166.283,33.533 166.233,33.483 166.2,33.45C164.467,31.817 162.4,31 160,31C157.533,31 155.417,31.85 153.65,33.55C153.617,33.583 153.583,33.617 153.55,33.65C151.85,35.417 151,37.533 151,40C151,42.5 151.867,44.617 153.6,46.35C155.367,48.117 157.5,49 160,49C162.467,49 164.567,48.117 166.3,46.35C166.3,46.317 166.317,46.3 166.35,46.3C168.117,44.567 169,42.467 169,40C169,37.5 168.117,35.367 166.35,33.6M164.6,34.6C164.733,34.7 164.867,34.817 165,34.95C166.4,36.35 167.1,38.033 167.1,40C167.1,41.967 166.4,43.617 165,44.95C163.733,46.283 162.2,47 160.4,47.1L160,47.1C158.233,47.1 156.7,46.533 155.4,45.4C155.233,45.267 155.083,45.117 154.95,44.95C153.583,43.617 152.9,41.967 152.9,40C152.9,38.033 153.583,36.35 154.95,34.95C156.217,33.75 157.683,33.083 159.35,32.95C159.55,32.917 159.767,32.9 160,32.9C161.767,32.9 163.3,33.467 164.6,34.6Z" style="fill:rgb(204,204,204);fill-rule:nonzero;"/>
                </g>
                <g transform="matrix(1,0,0,1,-12.426334,-0.230181)">
                    <path d="M156.85,44.25L155.4,45.4C156.7,46.533 158.233,47.1 160,47.1L160.4,47.1L159.7,45.2L156.85,44.25M157.55,36.65L154.8,37.1L154.25,39.95L155.85,41.55L158.4,39.35L157.55,36.65M164.6,43.15L165.6,40.05L163.4,38.5L161.3,40.6L161.85,43.35L164.6,43.15M162.75,35.85L164.6,34.6C163.3,33.467 161.767,32.9 160,32.9C159.767,32.9 159.55,32.917 159.35,32.95L159.7,34.75L162.75,35.85Z" style="fill:rgb(70,70,70);fill-rule:nonzero;"/>
                </g>
                <g transform="matrix(1,0,0,1,-12.426334,-0.230181)">
                    <path d="M164.6,34.6L162.75,35.85L159.7,34.75L159.35,32.95C157.683,33.083 156.217,33.75 154.95,34.95C153.583,36.35 152.9,38.033 152.9,40C152.9,41.967 153.583,43.617 154.95,44.95C155.083,45.117 155.233,45.267 155.4,45.4L156.85,44.25L159.7,45.2L160.4,47.1C162.2,47 163.733,46.283 165,44.95C166.4,43.617 167.1,41.967 167.1,40C167.1,38.033 166.4,36.35 165,34.95C164.867,34.817 164.733,34.7 164.6,34.6M165.6,40.05L164.6,43.15L161.85,43.35L161.3,40.6L163.4,38.5L165.6,40.05M154.8,37.1L157.55,36.65L158.4,39.35L155.85,41.55L154.25,39.95L154.8,37.1Z" style="fill:white;fill-rule:nonzero;"/>
                </g>
            </g>
        </g>
    </g>
</svg>
