<?xml version="1.0" encoding="UTF-8" standalone="no"?>
<!DOCTYPE svg PUBLIC "-//W3C//DTD SVG 1.1//EN" "http://www.w3.org/Graphics/SVG/1.1/DTD/svg11.dtd">
<svg width="100%" height="100%" viewBox="0 0 256 128" version="1.1" xmlns="http://www.w3.org/2000/svg" xmlns:xlink="http://www.w3.org/1999/xlink" xml:space="preserve" xmlns:serif="http://www.serif.com/" style="fill-rule:evenodd;clip-rule:evenodd;stroke-linejoin:round;stroke-miterlimit:2;">
    <g transform="matrix(1,0,0,1,-148.237273,-479.577833)">
        <g id="goalkeeper_idle" transform="matrix(0.249202,0,0,0.150637,-166.6294,479.577833)">
            <rect x="1263.499" y="0" width="1027.278" height="849.727" style="fill:none;"/>
            <g id="Layer0_83_FILL" transform="matrix(0,13.231904,-9.564789,0,5131.987962,-4745.62917)">
                <path d="M392.6,366.45C392.967,366.817 393.433,367 394,367L406.8,367C407.1,367 407.4,366.933 407.7,366.8C407.967,366.667 408.2,366.483 408.4,366.25C410.633,363.383 410.667,360.283 408.5,356.95C408.3,356.65 408.05,356.417 407.75,356.25C407.45,356.083 407.133,356 406.8,356L394,356C393.433,356 392.967,356.2 392.6,356.6C392.2,356.967 392,357.433 392,358L392,365C392,365.567 392.2,366.05 392.6,366.45M394,365L394,358L406.8,358C408.433,360.533 408.433,362.867 406.8,365L394,365Z" style="fill:rgb(196,162,111);fill-rule:nonzero;"/>
                <path d="M394,358L394,365L406.8,365C408.433,362.867 408.433,360.533 406.8,358L394,358Z" style="fill:rgb(255,224,177);fill-rule:nonzero;"/>
            </g>
            <g id="Layer0_83_FILL1" serif:id="Layer0_83_FILL" transform="matrix(0,13.231904,-9.564789,0,5318.373555,-4737.602613)">
                <path d="M392.6,366.45C392.967,366.817 393.433,367 394,367L406.8,367C407.1,367 407.4,366.933 407.7,366.8C407.967,366.667 408.2,366.483 408.4,366.25C410.633,363.383 410.667,360.283 408.5,356.95C408.3,356.65 408.05,356.417 407.75,356.25C407.45,356.083 407.133,356 406.8,356L394,356C393.433,356 392.967,356.2 392.6,356.6C392.2,356.967 392,357.433 392,358L392,365C392,365.567 392.2,366.05 392.6,366.45M394,365L394,358L406.8,358C408.433,360.533 408.433,362.867 406.8,365L394,365Z" style="fill:rgb(196,162,111);fill-rule:nonzero;"/>
                <path d="M394,358L394,365L406.8,365C408.433,362.867 408.433,360.533 406.8,358L394,358Z" style="fill:rgb(255,224,177);fill-rule:nonzero;"/>
            </g>
            <g id="Layer0_17_FILL" transform="matrix(0,25.607007,-15.510638,0,4422.154256,-707.497647)">
                <path d="M46.75,164.85C46.583,164.683 46.433,164.517 46.3,164.35C45.333,163.383 44.233,162.733 43,162.4C42.867,162.367 42.717,162.333 42.55,162.3C43.017,162.767 42.917,163.567 42.25,164.7C42.15,164.833 42.067,164.967 42,165.1C42.333,165.133 42.667,165.2 43,165.3C43.767,165.533 44.467,165.967 45.1,166.6C46.167,167.667 46.7,168.917 46.7,170.35C46.7,171.817 46.167,173.083 45.1,174.15C44.467,174.783 43.767,175.233 43,175.5C42.7,175.6 42.383,175.667 42.05,175.7C42.083,175.8 42.15,175.917 42.25,176.05C42.883,177.117 43,177.9 42.6,178.4C42.733,178.367 42.867,178.333 43,178.3C44.233,177.967 45.333,177.317 46.3,176.35C46.433,176.183 46.583,176.017 46.75,175.85C46.85,174.917 47.167,174.067 47.7,173.3C48.2,172.567 48.467,171.583 48.5,170.35C48.467,169.117 48.2,168.133 47.7,167.4C47.167,166.633 46.85,165.783 46.75,164.85Z" style="fill:rgb(255,224,177);fill-rule:nonzero;"/>
                <path d="M48.8,164.85L46.75,164.85C46.85,165.783 47.167,166.633 47.7,167.4C48.2,168.133 48.467,169.117 48.5,170.35C48.467,171.583 48.2,172.567 47.7,173.3C47.167,174.067 46.85,174.917 46.75,175.85L48.8,175.85C48.867,175.35 49.05,174.883 49.35,174.45C50.083,173.45 50.467,172.1 50.5,170.4L50.5,170.3C50.467,168.6 50.083,167.267 49.35,166.3L49.35,166.25C49.05,165.817 48.867,165.35 48.8,164.85Z" style="fill:rgb(196,162,111);fill-rule:nonzero;"/>
                <path d="M35.15,177.95L35.15,177.15L33.15,178.05C33.183,180.15 33.95,181.967 35.45,183.5C36.983,184.967 38.817,185.7 40.95,185.7C41.683,185.7 42.367,185.617 43,185.45C44.267,185.117 45.417,184.467 46.45,183.5L46.5,183.5C48,181.967 48.75,180.117 48.75,177.95L48.75,176.1C48.75,176 48.767,175.917 48.8,175.85L46.75,175.85L46.75,177.95C46.75,179.55 46.183,180.917 45.05,182.05C44.45,182.65 43.767,183.083 43,183.35C42.367,183.583 41.683,183.7 40.95,183.7C39.35,183.7 37.983,183.15 36.85,182.05C35.717,180.917 35.15,179.55 35.15,177.95M33.15,162.7L33.1,162.75L35.15,163.6L35.15,162.75C35.15,161.15 35.717,159.783 36.85,158.65C37.983,157.55 39.35,157 40.95,157C41.683,157 42.367,157.117 43,157.35C43.767,157.617 44.45,158.05 45.05,158.65C46.183,159.783 46.75,161.15 46.75,162.75L46.75,164.85L48.8,164.85C48.767,164.783 48.75,164.717 48.75,164.65L48.75,162.75C48.75,160.583 48,158.75 46.5,157.25L46.45,157.25C45.417,156.25 44.267,155.583 43,155.25C42.367,155.083 41.683,155 40.95,155C38.817,155 36.983,155.75 35.45,157.25C33.917,158.75 33.15,160.567 33.15,162.7Z" style="fill:rgb(166,76,18);fill-rule:nonzero;"/>
                <path d="M40.45,179C38.417,179 36.65,178.383 35.15,177.15L35.15,177.95C35.15,179.55 35.717,180.917 36.85,182.05C37.983,183.15 39.35,183.7 40.95,183.7C41.683,183.7 42.367,183.583 43,183.35C43.767,183.083 44.45,182.65 45.05,182.05C46.183,180.917 46.75,179.55 46.75,177.95L46.75,175.85C46.583,176.017 46.433,176.183 46.3,176.35C45.333,177.317 44.233,177.967 43,178.3C42.867,178.333 42.733,178.367 42.6,178.4C42.233,178.8 41.517,179 40.45,179M35.15,162.75L35.15,163.6C36.65,162.367 38.417,161.75 40.45,161.75C41.483,161.75 42.183,161.933 42.55,162.3C42.717,162.333 42.867,162.367 43,162.4C44.233,162.733 45.333,163.383 46.3,164.35C46.433,164.517 46.583,164.683 46.75,164.85L46.75,162.75C46.75,161.15 46.183,159.783 45.05,158.65C44.45,158.05 43.767,157.617 43,157.35C42.367,157.117 41.683,157 40.95,157C39.35,157 37.983,157.55 36.85,158.65C35.717,159.783 35.15,161.15 35.15,162.75Z" style="fill:rgb(232,106,23);fill-rule:nonzero;"/>
                <path d="M35.15,163.6C34.917,163.8 34.7,164 34.5,164.2C33.5,165.233 32.8,166.383 32.4,167.65C32.133,168.45 32,169.3 32,170.2L32,170.55C32,171.483 32.133,172.367 32.4,173.2C32.8,174.433 33.5,175.55 34.5,176.55C34.7,176.75 34.917,176.95 35.15,177.15C36.65,178.383 38.417,179 40.45,179C41.517,179 42.233,178.8 42.6,178.4C43,177.9 42.883,177.117 42.25,176.05C42.15,175.917 42.083,175.8 42.05,175.7C42.383,175.667 42.7,175.6 43,175.5C43.767,175.233 44.467,174.783 45.1,174.15C46.167,173.083 46.7,171.817 46.7,170.35C46.7,168.917 46.167,167.667 45.1,166.6C44.467,165.967 43.767,165.533 43,165.3C42.667,165.2 42.333,165.133 42,165.1C42.067,164.967 42.15,164.833 42.25,164.7C42.917,163.567 43.017,162.767 42.55,162.3C42.183,161.933 41.483,161.75 40.45,161.75C38.417,161.75 36.65,162.367 35.15,163.6Z" style="fill:rgb(187,128,68);fill-rule:nonzero;"/>
                <path d="M30,170.2L30,170.55C30,171.717 30.167,172.8 30.5,173.8C30.967,175.333 31.833,176.733 33.1,178L33.15,178.05L35.15,177.15C34.917,176.95 34.7,176.75 34.5,176.55C33.5,175.55 32.8,174.433 32.4,173.2C32.133,172.367 32,171.483 32,170.55L32,170.2C32,169.3 32.133,168.45 32.4,167.65C32.8,166.383 33.5,165.233 34.5,164.2C34.7,164 34.917,163.8 35.15,163.6L33.1,162.75L33.1,162.8C31.833,164.033 30.967,165.45 30.5,167.05C30.167,168.017 30,169.067 30,170.2Z" style="fill:rgb(126,81,37);fill-rule:nonzero;"/>
            </g>
            <g id="Layer0_99_FILL" transform="matrix(5.867631,16.979917,-10.164162,9.5732,1292.853936,-7755.480232)">
                <path d="M399.15,158C400.25,160.467 400.267,162.8 399.2,165L406.8,165C408.433,162.867 408.433,160.533 406.8,158L399.15,158Z" style="fill:rgb(255,224,177);fill-rule:nonzero;"/>
                <path d="M398.95,157.55C398.85,157.35 398.75,157.167 398.65,157L394,157L394,166L398.65,166C398.783,165.8 398.9,165.6 399,165.4C399.067,165.267 399.133,165.133 399.2,165C400.267,162.8 400.25,160.467 399.15,158C399.083,157.867 399.017,157.717 398.95,157.55Z" style="fill:rgb(232,106,23);fill-rule:nonzero;"/>
                <path d="M400.4,156L399.15,158L406.8,158C408.433,160.533 408.433,162.867 406.8,165L399.2,165L400.4,167L406.8,167C407.1,167 407.4,166.933 407.7,166.8C407.967,166.667 408.2,166.483 408.4,166.25C410.633,163.383 410.667,160.283 408.5,156.95C408.3,156.65 408.05,156.417 407.75,156.25C407.45,156.083 407.133,156 406.8,156L400.4,156Z" style="fill:rgb(196,162,111);fill-rule:nonzero;"/>
                <path d="M399.65,155.25C399.317,155.083 398.983,155 398.65,155L394,155C393.433,155 392.967,155.2 392.6,155.6C392.2,155.967 392,156.433 392,157L392,166C392,166.567 392.2,167.05 392.6,167.45C392.967,167.817 393.433,168 394,168L398.65,168C398.983,168 399.3,167.933 399.6,167.8C399.9,167.633 400.15,167.4 400.35,167.1C400.35,167.067 400.367,167.033 400.4,167L399.2,165C399.133,165.133 399.067,165.267 399,165.4C398.9,165.6 398.783,165.8 398.65,166L394,166L394,157L398.65,157C398.75,157.167 398.85,157.35 398.95,157.55C399.017,157.717 399.083,157.867 399.15,158L400.4,156C400.2,155.667 399.95,155.417 399.65,155.25Z" style="fill:rgb(166,76,18);fill-rule:nonzero;"/>
            </g>
            <g id="Layer0_99_FILL1" serif:id="Layer0_99_FILL" transform="matrix(-6.517659,17.37089,-10.521869,-10.760212,5869.452246,-4618.244421)">
                <path d="M399.15,158C400.25,160.467 400.267,162.8 399.2,165L406.8,165C408.433,162.867 408.433,160.533 406.8,158L399.15,158Z" style="fill:rgb(255,224,177);fill-rule:nonzero;"/>
                <path d="M398.95,157.55C398.85,157.35 398.75,157.167 398.65,157L394,157L394,166L398.65,166C398.783,165.8 398.9,165.6 399,165.4C399.067,165.267 399.133,165.133 399.2,165C400.267,162.8 400.25,160.467 399.15,158C399.083,157.867 399.017,157.717 398.95,157.55Z" style="fill:rgb(232,106,23);fill-rule:nonzero;"/>
                <path d="M400.4,156L399.15,158L406.8,158C408.433,160.533 408.433,162.867 406.8,165L399.2,165L400.4,167L406.8,167C407.1,167 407.4,166.933 407.7,166.8C407.967,166.667 408.2,166.483 408.4,166.25C410.633,163.383 410.667,160.283 408.5,156.95C408.3,156.65 408.05,156.417 407.75,156.25C407.45,156.083 407.133,156 406.8,156L400.4,156Z" style="fill:rgb(196,162,111);fill-rule:nonzero;"/>
                <path d="M399.65,155.25C399.317,155.083 398.983,155 398.65,155L394,155C393.433,155 392.967,155.2 392.6,155.6C392.2,155.967 392,156.433 392,157L392,166C392,166.567 392.2,167.05 392.6,167.45C392.967,167.817 393.433,168 394,168L398.65,168C398.983,168 399.3,167.933 399.6,167.8C399.9,167.633 400.15,167.4 400.35,167.1C400.35,167.067 400.367,167.033 400.4,167L399.2,165C399.133,165.133 399.067,165.267 399,165.4C398.9,165.6 398.783,165.8 398.65,166L394,166L394,157L398.65,157C398.75,157.167 398.85,157.35 398.95,157.55C399.017,157.717 399.083,157.867 399.15,158L400.4,156C400.2,155.667 399.95,155.417 399.65,155.25Z" style="fill:rgb(166,76,18);fill-rule:nonzero;"/>
            </g>
        </g>
    </g>
</svg>
