<?xml version="1.0" encoding="UTF-8" standalone="no"?>
<!DOCTYPE svg PUBLIC "-//W3C//DTD SVG 1.1//EN" "http://www.w3.org/Graphics/SVG/1.1/DTD/svg11.dtd">
<svg width="100%" height="100%" viewBox="0 0 532 316" version="1.1" xmlns="http://www.w3.org/2000/svg" xmlns:xlink="http://www.w3.org/1999/xlink" xml:space="preserve" xmlns:serif="http://www.serif.com/" style="fill-rule:evenodd;clip-rule:evenodd;stroke-linejoin:round;stroke-miterlimit:2;">
    <g transform="matrix(1,0,0,1,-760.230738,-383.173065)">
        <g id="goal_net" transform="matrix(0.517545,0,0,0.371582,-1201.004286,383.173065)">
            <rect x="3789.499" y="0" width="1027.278" height="849.727" style="fill:none;"/>
            <g transform="matrix(6.921608,0,0,9.640516,-25708.820357,-1405.14129)">
                <g id="Layer0_42_FILL" transform="matrix(0,-1,1,0,4046.498514,699)">
                    <path d="M516,312L520,312L520,308L516,308L516,312M520,316L524,316L524,312L520,312L520,316M516,316L516,320L520,320L520,316L516,316M516,312L512,312L512,316L516,316L516,312M516,304L512,304L512,308L516,308L516,304M520,304L520,300L516,300L516,304L520,304M524,304L520,304L520,308L524,308L524,304M528,312L528,308L524,308L524,312L528,312M540,316L540,320L541,320L541,316L540,316M536,312L536,316L540,316L540,312L536,312M528,316L532,316L532,312L528,312L528,316M532,320L536,320L536,316L532,316L532,320M528,320L528,316L524,316L524,320L528,320M528,304L528,300L524,300L524,304L528,304M536,308L532,308L532,312L536,312L536,308M528,304L528,308L532,308L532,304L528,304M536,300L532,300L532,304L536,304L536,300M540,308L540,304L536,304L536,308L540,308M541,308L540,308L540,312L541,312L541,308M541,300L540,300L540,304L541,304L541,300M540,296L536,296L536,300L540,300L540,296M541,296L541,292L540,292L540,296L541,296M528,288L528,292L532,292L532,288L528,288M536,288L536,292L540,292L540,288L536,288M532,296L528,296L528,300L532,300L532,296M532,292L532,296L536,296L536,292L532,292M536,284L532,284L532,288L536,288L536,284M528,280L528,284L532,284L532,280L528,280M536,276L532,276L532,280L536,280L536,276M541,284L540,284L540,288L541,288L541,284M540,284L540,280L536,280L536,284L540,284M541,276L540,276L540,280L541,280L541,276M540,272L536,272L536,276L540,276L540,272M536,260L540,260L540,256L536,256L536,260M541,272L541,268L540,268L540,272L541,272M541,264L541,260L540,260L540,264L541,264M532,268L532,264L528,264L528,268L532,268M532,272L528,272L528,276L532,276L532,272M536,264L536,268L540,268L540,264L536,264M536,268L532,268L532,272L536,272L536,268M536,264L536,260L532,260L532,264L536,264M532,256L528,256L528,260L532,260L532,256M524,284L524,288L528,288L528,284L524,284M516,284L516,288L520,288L520,284L516,284M524,292L524,296L528,296L528,292L524,292M524,288L520,288L520,292L524,292L524,288M524,296L520,296L520,300L524,300L524,296M516,296L512,296L512,300L516,300L516,296M516,292L516,296L520,296L520,292L516,292M516,288L512,288L512,292L516,292L516,288M516,280L512,280L512,284L516,284L516,280M524,276L524,280L528,280L528,276L524,276M520,280L520,276L516,276L516,280L520,280M520,280L520,284L524,284L524,280L520,280M524,272L520,272L520,276L524,276L524,272M524,268L524,264L520,264L520,268L524,268M524,268L524,272L528,272L528,268L524,268M524,260L524,264L528,264L528,260L524,260M516,264L512,264L512,268L516,268L516,264M516,260L516,264L520,264L520,260L516,260M516,268L516,272L520,272L520,268L516,268M516,272L512,272L512,276L516,276L516,272M516,256L512,256L512,260L516,260L516,256M524,256L520,256L520,260L524,260L524,256Z" style="fill:rgb(223,223,231);fill-rule:nonzero;"/>
                    <path d="M547,256L545,256L545,320L547,320L547,256M543,256L541,256L541,320L543,320L543,256Z" style="fill:rgb(203,206,233);fill-rule:nonzero;"/>
                    <rect x="543" y="256" width="2" height="64" style="fill:white;fill-rule:nonzero;"/>
                </g>
                <g id="Layer0_43_FILL" transform="matrix(0,-1,1,0,4046.498514,699)">
                    <path d="M528,248L528,244L524,244L524,248L528,248M536,252L532,252L532,256L536,256L536,252M532,252L532,248L528,248L528,252L532,252M541.05,252L540,252L540,256L541.05,256L541.05,252M540,252L540,248L536,248L536,252L540,252M512,252L516,252L516,248L512,248L512,252M524,252L524,256L528,256L528,252L524,252M520,252L524,252L524,248L520,248L520,252M520,256L520,252L516,252L516,256L520,256M520,244L516,244L516,248L520,248L520,244M524,240L520,240L520,244L524,244L524,240M516,244L516,240L512,240L512,244L516,244M516,236L516,240L520,240L520,236L516,236M516,227.05L512,227.05L512,228L516,228L516,227.05M516,232L512,232L512,236L516,236L516,232M520,232L520,228L516,228L516,232L520,232M524,232L520,232L520,236L524,236L524,232M520,228L524,228L524,227.05L520,227.05L520,228M536,232L536,236L540,236L540,232L536,232M541.05,244L540,244L540,248L541.05,248L541.05,244M540,236L540,240L541.05,240L541.05,236L540,236M536,240L536,244L540,244L540,240L536,240M528,244L532,244L532,240L528,240L528,244M536,244L532,244L532,248L536,248L536,244M528,240L528,236L524,236L524,240L528,240M532,236L532,240L536,240L536,236L532,236M528,232L528,228L524,228L524,232L528,232M532,232L528,232L528,236L532,236L532,232M536,228L532,228L532,232L536,232L536,228M532,228L532,227.05L528,227.05L528,228L532,228M540,228L540,227.2C539.767,227.1 539.483,227.05 539.15,227.05L536,227.05L536,228L540,228M540.85,228L540,228L540,232L541.05,232L541.05,229C541.05,228.6 540.983,228.267 540.85,228Z" style="fill:rgb(223,223,231);fill-rule:nonzero;"/>
                    <path d="M540,227.2C540.4,227.367 540.683,227.633 540.85,228C540.983,228.267 541.05,228.6 541.05,229L541.05,256L543.05,256L543.05,228.95C543.05,228.617 543.017,228.3 542.95,228C542.683,226.3 541.7,225.333 540,225.1C539.733,225.067 539.45,225.05 539.15,225.05L512,225.05L512,227.05L539.15,227.05C539.483,227.05 539.767,227.1 540,227.2M540,221.1C539.733,221.067 539.45,221.05 539.15,221.05L512,221.05L512,223.05L539.15,223.05C539.45,223.05 539.733,223.067 540,223.1C541.167,223.167 542.133,223.467 542.9,224C543.333,224.3 543.7,224.667 544,225.1C544.533,225.833 544.867,226.8 545,228C545.033,228.233 545.05,228.5 545.05,228.8L545.05,256L547.05,256L547.05,228.8C547.05,228.533 547.033,228.267 547,228C546.867,226.367 546.45,225.033 545.75,224C545.517,223.7 545.267,223.417 545,223.15C544.7,222.817 544.367,222.533 544,222.3C542.933,221.6 541.6,221.2 540,221.1Z" style="fill:rgb(203,206,233);fill-rule:nonzero;"/>
                    <path d="M544,225.1C543.7,224.667 543.333,224.3 542.9,224C542.133,223.467 541.167,223.167 540,223.1C539.733,223.067 539.45,223.05 539.15,223.05L512,223.05L512,225.05L539.15,225.05C539.45,225.05 539.733,225.067 540,225.1C541.7,225.333 542.683,226.3 542.95,228C543.017,228.3 543.05,228.617 543.05,228.95L543.05,256L545.05,256L545.05,228.8C545.05,228.5 545.033,228.233 545,228C544.867,226.8 544.533,225.833 544,225.1Z" style="fill:white;fill-rule:nonzero;"/>
                </g>
                <g id="Layer0_45_FILL" transform="matrix(0,-1,1,0,4046.498514,699)">
                    <path d="M536,352L536,348L532,348L532,352L536,352M544,352L544,348L540,348L540,352L544,352M524,348L524,352L528,352L528,348L524,348M516,352L520,352L520,348L516,348L516,352M520,336L520,332L516,332L516,336L520,336M520,340L524,340L524,336L520,336L520,340M524,344L520,344L520,348L524,348L524,344M512,340L516,340L516,336L512,336L512,340M516,344L512,344L512,348L516,348L516,344M516,340L516,344L520,344L520,340L516,340M516,328L512,328L512,332L516,332L516,328M520,328L520,324L516,324L516,328L520,328M524,328L520,328L520,332L524,332L524,328M524,320L520,320L520,324L524,324L524,320M516,320L512,320L512,324L516,324L516,320M540,344L536,344L536,348L540,348L540,344M528,336L528,332L524,332L524,336L528,336M544,340L540,340L540,344L544,344L544,340M528,344L528,340L524,340L524,344L528,344M532,344L528,344L528,348L532,348L532,344M536,340L532,340L532,344L536,344L536,340M532,340L532,336L528,336L528,340L532,340M536,336L536,340L540,340L540,336L536,336M528,328L528,324L524,324L524,328L528,328M536,332L532,332L532,336L536,336L536,332M528,328L528,332L532,332L532,328L528,328M536,324L532,324L532,328L536,328L536,324M544,332L540,332L540,336L544,336L544,332M540,332L540,328L536,328L536,332L540,332M540,324L540,328L544,328L544,324L540,324M540,320L536,320L536,324L540,324L540,320M532,320L528,320L528,324L532,324L532,320Z" style="fill:rgb(223,223,231);fill-rule:nonzero;"/>
                </g>
                <g id="Layer0_45_MEMBER_0_FILL" transform="matrix(0,-1,1,0,4046.498514,699)">
                    <path d="M543.05,320L541.05,320L541.05,347C541.05,347.4 540.983,347.733 540.85,348C540.583,348.6 540.017,348.917 539.15,348.95L512,348.95L512,350.95L539.15,350.95C541.383,350.95 542.65,349.967 542.95,348C543.017,347.7 543.05,347.383 543.05,347.05L543.05,320M547.05,320L545.05,320L545.05,347.2C545.05,347.5 545.033,347.767 545,348C544.667,351.3 542.717,352.95 539.15,352.95L512,352.95L512,354.95L539.15,354.95C541.75,354.95 543.7,354.25 545,352.85C546.167,351.717 546.833,350.1 547,348C547.033,347.733 547.05,347.467 547.05,347.2L547.05,320Z" style="fill:rgb(203,206,233);fill-rule:nonzero;"/>
                    <path d="M545.05,320L543.05,320L543.05,347.05C543.05,347.383 543.017,347.7 542.95,348C542.65,349.967 541.383,350.95 539.15,350.95L512,350.95L512,352.95L539.15,352.95C542.717,352.95 544.667,351.3 545,348C545.033,347.767 545.05,347.5 545.05,347.2L545.05,320Z" style="fill:white;fill-rule:nonzero;"/>
                </g>
                <g id="Layer0_50_FILL" transform="matrix(0,-1,1,0,4046.498514,699)">
                    <path d="M496,348L492,348L492,349L496,349L496,348M500,348L500,349L504,349L504,348L500,348M512,348L508,348L508,349L512,349L512,348M508,320L504,320L504,324L508,324L508,320M508,344L504,344L504,348L508,348L508,344M508,340L508,344L512,344L512,340L508,340M512,332L508,332L508,336L512,336L512,332M508,324L508,328L512,328L512,324L508,324M500,344L496,344L496,348L500,348L500,344M504,336L504,340L508,340L508,336L504,336M504,340L500,340L500,344L504,344L504,340M492,344L488,344L488,348L492,348L492,344M496,340L492,340L492,344L496,344L496,340M492,340L492,336L488,336L488,340L492,340M496,336L496,340L500,340L500,336L496,336M496,332L492,332L492,336L496,336L496,332M488,328L488,332L492,332L492,328L488,328M496,324L492,324L492,328L496,328L496,324M504,328L504,332L508,332L508,328L504,328M500,332L500,328L496,328L496,332L500,332M504,332L500,332L500,336L504,336L504,332M500,324L500,328L504,328L504,324L500,324M500,320L496,320L496,324L500,324L500,320M492,320L488,320L488,324L492,324L492,320M484,348L484,349L488,349L488,348L484,348M484,332L484,336L488,336L488,332L484,332M484,336L480,336L480,340L484,340L484,336M484,344L480,344L480,348L484,348L484,344M484,340L484,344L488,344L488,340L484,340M484,328L480,328L480,332L484,332L484,328M484,324L484,328L488,328L488,324L484,324M484,320L480,320L480,324L484,324L484,320Z" style="fill:rgb(223,223,231);fill-rule:nonzero;"/>
                    <rect x="480" y="351" width="32" height="2" style="fill:white;fill-rule:nonzero;"/>
                    <path d="M478.55,349.55C478.195,349.938 478.011,350.354 478,350.8L478,353.05C478,353.583 478.183,354.05 478.55,354.45C478.817,354.717 479.133,354.883 479.5,354.95C479.633,354.983 479.767,355 479.9,355L512,355L512,353L480,353L480,351L512,351L512,349L480,349L479.6,349.05C479.467,349.083 479.333,349.117 479.2,349.15C478.967,349.25 478.75,349.383 478.55,349.55Z" style="fill:rgb(203,206,233);fill-rule:nonzero;"/>
                    <path d="M480,320L478,320L478,350.8C478.011,350.354 478.195,349.938 478.55,349.55C478.75,349.383 478.967,349.25 479.2,349.15C479.333,349.117 479.467,349.083 479.6,349.05L480,349L480,320Z" style="fill:rgb(184,185,196);fill-rule:nonzero;"/>
                </g>
                <g id="Layer0_51_FILL" transform="matrix(0,-1,1,0,4046.498514,699)">
                    <path d="M492,252L492,248L488,248L488,252L492,252M496,252L492,252L492,256L496,256L496,252M500,252L500,248L496,248L496,252L500,252M504,256L504,252L500,252L500,256L504,256M508,252L508,248L504,248L504,252L508,252M512,252L508,252L508,256L512,256L512,252M512,236L508,236L508,240L512,240L512,236M512,244L508,244L508,248L512,248L512,244M508,228L508,232L512,232L512,228L508,228M504,232L504,236L508,236L508,232L504,232M496,236L500,236L500,232L496,232L496,236M504,240L504,244L508,244L508,240L504,240M504,244L500,244L500,248L504,248L504,244M500,236L500,240L504,240L504,236L500,236M496,240L496,244L500,244L500,240L496,240M492,240L488,240L488,244L492,244L492,240M496,244L492,244L492,248L496,248L496,244M492,236L492,240L496,240L496,236L492,236M492,232L488,232L488,236L492,236L492,232M492,228L492,227L488,227L488,228L492,228M496,228L492,228L492,232L496,232L496,228M504,227L504,228L508,228L508,227L504,227M500,228L500,232L504,232L504,228L500,228M500,228L500,227L496,227L496,228L500,228M484,244L484,248L488,248L488,244L484,244M484,248L480,248L480,252L484,252L484,248M484,252L484,256L488,256L488,252L484,252M484,240L480,240L480,244L484,244L484,240M484,236L484,240L488,240L488,236L484,236M484,232L480,232L480,236L484,236L484,232M484,228L484,232L488,232L488,228L484,228M484,228L484,227L480,227L480,228L484,228Z" style="fill:rgb(223,223,231);fill-rule:nonzero;"/>
                    <path d="M478.55,226.45C478.217,226.083 478.033,225.633 478,225.1L478,256L480,256L480,227C479.433,227 478.95,226.817 478.55,226.45Z" style="fill:rgb(184,185,196);fill-rule:nonzero;"/>
                    <rect x="480" y="223" width="32" height="2" style="fill:white;fill-rule:nonzero;"/>
                    <path d="M480,221C479.433,221 478.95,221.2 478.55,221.6C478.183,221.967 478,222.433 478,223L478,225.1C478.033,225.633 478.217,226.083 478.55,226.45C478.95,226.817 479.433,227 480,227L512,227L512,225L480,225L480,223L512,223L512,221L480,221Z" style="fill:rgb(203,206,233);fill-rule:nonzero;"/>
                </g>
                <g id="Layer0_53_FILL" transform="matrix(0,-1,1,0,4046.498514,699)">
                    <path d="M504,316L500,316L500,320L504,320L504,316M496,312L496,316L500,316L500,312L496,312M488,316L492,316L492,312L488,312L488,316M496,316L492,316L492,320L496,320L496,316M496,308L492,308L492,312L496,312L496,308M488,304L488,308L492,308L492,304L488,304M496,300L492,300L492,304L496,304L496,300M504,308L500,308L500,312L504,312L504,308M500,308L500,304L496,304L496,308L500,308M504,300L500,300L500,304L504,304L504,300M508,316L508,320L512,320L512,316L508,316M508,316L508,312L504,312L504,316L508,316M508,308L508,304L504,304L504,308L508,308M512,300L508,300L508,304L512,304L512,300M512,308L508,308L508,312L512,312L512,308M508,296L504,296L504,300L508,300L508,296M504,276L508,276L508,272L504,272L504,276M508,296L512,296L512,292L508,292L508,296M512,284L508,284L508,288L512,288L512,284M512,276L508,276L508,280L512,280L512,276M500,296L496,296L496,300L500,300L500,296M504,292L500,292L500,296L504,296L504,292M504,288L504,292L508,292L508,288L504,288M496,288L496,292L500,292L500,288L496,288M492,292L492,288L488,288L488,292L492,292M492,296L488,296L488,300L492,300L492,296M496,292L492,292L492,296L496,296L496,292M496,284L492,284L492,288L496,288L496,284M488,280L488,284L492,284L492,280L488,280M496,276L492,276L492,280L496,280L496,276M504,284L500,284L500,288L504,288L504,284M504,280L504,276L500,276L500,280L504,280M504,280L504,284L508,284L508,280L504,280M500,284L500,280L496,280L496,284L500,284M496,260L500,260L500,256L496,256L496,260M500,272L496,272L496,276L500,276L500,272M500,268L500,272L504,272L504,268L500,268M504,264L504,260L500,260L500,264L504,264M492,272L488,272L488,276L492,276L492,272M496,264L496,268L500,268L500,264L496,264M488,264L488,268L492,268L492,264L488,264M496,268L492,268L492,272L496,272L496,268M496,260L492,260L492,264L496,264L496,260M492,256L488,256L488,260L492,260L492,256M508,260L508,256L504,256L504,260L508,260M508,268L508,264L504,264L504,268L508,268M508,268L508,272L512,272L512,268L508,268M512,264L512,260L508,260L508,264L512,264M484,308L484,312L488,312L488,308L484,308M484,316L484,320L488,320L488,316L484,316M480,312L480,316L484,316L484,312L480,312M480,308L484,308L484,304L480,304L480,308M484,300L484,304L488,304L488,300L484,300M484,284L484,288L488,288L488,284L484,284M484,296L480,296L480,300L484,300L484,296M484,292L484,296L488,296L488,292L484,292M484,288L480,288L480,292L484,292L484,288M484,276L484,280L488,280L488,276L484,276M480,280L480,284L484,284L484,280L480,280M484,272L480,272L480,276L484,276L484,272M480,268L484,268L484,264L480,264L480,268M484,268L484,272L488,272L488,268L484,268M484,260L484,264L488,264L488,260L484,260M484,256L480,256L480,260L484,260L484,256Z" style="fill:rgb(223,223,231);fill-rule:nonzero;"/>
                    <rect x="478" y="256" width="2" height="64" style="fill:rgb(184,185,196);fill-rule:nonzero;"/>
                </g>
            </g>
        </g>
    </g>
</svg>
